# xmcd
# Copyright (C) 1995-1998 Ti Kan
#
# Track frame offsets:
#       150
#       15838
#       32403
#       48117
#       64555
#       77410
#       96783
#       111041
#       129269
#       145305
#       161969
#       177097
#       192633
#       211368
#       227917
#       243660
#       263530
#       277266
#       295480
#       311862
#       326904
#
# Disc length: 4545 seconds
#
# Revision: 0
# Processed by: cddbd v1.5.2PL0 Copyright (c) Steve Scherf et al.
# Submitted via: CD-Transfer v1.0
#
DISCID=2f11bf15
DTITLE=Various Master 84 - Mastermix 84
DYEAR=07
DGENRE=
TTITLE0=Christina Aguilera Slow Down Baby
TTITLE1=Amerie Crush
TTITLE2=Natasha Bedingfield
TTITLE3=Kelly Clarckson Never Again
TTITLE4=Css Alcohol
TTITLE5=Sophie Ellis Bextor - Today The Sun`s On Us
TTITLE6=The Fratellis Ole Black `n`blue Eyes
TTITLE7=Groove Armada Ft. Mutya Buena Song 4 Mutya
TTITLE8=Jojo Coming For You
TTITLE9=Manic Street Preachers Autmnsong
TTITLE10=Maroon 5 Wake Up Call
TTITLE11=Maximo Park Books From Boxes
TTITLE12=Mika Big Girl (You Are Beautiful)
TTITLE13=Mark Ronson Ft. Lily Allen Oh My God
TTITLE14=Kelly Rowland Ft. Eve Like This
TTITLE15=Joss Sonte Ft. Common Tell Me What We´re Gonna Do Now
TTITLE16=Timbaland Ft. Keri Hilson The Way I Are
TTITLE17=Travis Selfish Jean
TTITLE18=Unklejam What Am I Fighting For
TTITLE19=The View Face For The Radio
TTITLE20=Amy Winehouse Tears Dry On Their Own
EXTD=
EXTT0=
EXTT1=
EXTT2=
EXTT3=
EXTT4=
EXTT5=
EXTT6=
EXTT7=
EXTT8=
EXTT9=
EXTT10=
EXTT11=
EXTT12=
EXTT13=
EXTT14=
EXTT15=
EXTT16=
EXTT17=
EXTT18=
EXTT19=
EXTT20=
PLAYORDER=
